PathFileType   4   (X/Y/Z)
DataRate	CameraRate	NumFrames	NumMarkers	Units	OrigDataRate	OrigDataStartFrame	OrigNumFrames
120.0	120.0	11	37	mm	120.0	59	156
Frame#	Time	midhip	hip_r	hip_l	knee_r	knee_l	ankle_r	ankle_l	midasis	asis_r	asis_l	psis_r	psis_l	epicondLat_r	epicondLat_l	epicondMed_r	epicondMed_l	malleolusLat_r	malleolusLat_l	malleolusMedv_r	malleolusMedv_l	neck	subclavicle_r	subclavicle_l	sternalnotch	xyphoidprocess	thighwand_r	thighwand_l	upperleg1_r	upperleg1_l	upperleg2_r	upperleg2_l	shankwand_r	shankwand_l	lowerleg1_r	lowerleg1_l	toe_r	toe_l
 	 	X1	Y1	Z1	X2	Y2	Z2	X3	Y3	Z3	X4	Y4	Z4	X5	Y5	Z5	X6	Y6	Z6	X7	Y7	Z7	X8	Y8	Z8	X9	Y9	Z9	X10	Y10	Z10	X11	Y11	Z11	X12	Y12	Z12	X13	Y13	Z13	X14	Y14	Z14	X15	Y15	Z15	X16	Y16	Z16	X17	Y17	Z17	X18	Y18	Z18	X19	Y19	Z19	X20	Y20	Z20	X21	Y21	Z21	X22	Y22	Z22	X23	Y23	Z23	X24	Y24	Z24	X25	Y25	Z25	X26	Y26	Z26	X27	Y27	Z27	X28	Y28	Z28	X29	Y29	Z29	X30	Y30	Z30	X31	Y31	Z31	X32	Y32	Z32	X33	Y33	Z33	X34	Y34	Z34	X35	Y35	Z35	X36	Y36	Z36	X37	Y37	Z37

	59	0.75000	1734.853	803.222	-283.031	1730.285	783.536	-209.770	1707.068	787.423	-360.066	1879.212	434.224	-203.546	1615.481	422.893	-335.888	2023.582	84.919	-187.310	1488.949	79.169	-301.723	1813.454	853.064	-294.733	1827.780	850.171	-176.325	1799.128	855.958	-413.142	1626.742	924.504	-235.137	1619.420	923.732	-289.170	1890.695	440.127	-147.001	1617.550	418.539	-393.687	1859.175	419.607	-262.858	1641.520	432.519	-272.895	2009.069	80.641	-150.282	1471.677	81.952	-337.695	2032.947	98.089	-219.525	1502.161	86.537	-277.325	1704.097	1357.231	-282.618	1833.363	1293.816	-237.707	1829.438	1288.087	-343.423	1828.001	1287.835	-289.462	1867.051	1217.889	-291.226	1961.309	607.435	-242.779	1680.659	536.790	-488.094	1891.389	631.711	-175.816	1635.057	599.607	-429.845	1911.779	544.511	-176.321	1627.751	514.153	-412.346	1966.825	156.557	-83.159	1618.775	166.313	-315.847	1968.739	164.424	-126.014	1578.670	179.471	-319.988	2121.098	95.180	-157.662	1581.199	42.685	-346.445
	60	0.75833	1742.618	802.402	-282.303	1738.257	782.641	-208.927	1714.519	786.742	-359.136	1884.866	432.533	-203.323	1620.301	422.779	-335.876	2030.055	83.296	-187.638	1489.704	80.420	-302.164	1821.126	852.297	-294.078	1835.878	849.231	-175.601	1806.374	855.363	-412.555	1634.686	923.565	-233.784	1627.184	922.959	-287.822	1896.877	438.466	-146.892	1621.997	418.644	-393.704	1865.184	417.518	-262.465	1646.033	432.562	-272.427	2015.440	78.881	-150.667	1472.320	83.517	-338.056	2039.298	96.848	-219.726	1502.534	88.035	-277.835	1710.907	1356.187	-281.586	1840.632	1293.306	-236.398	1836.242	1287.484	-342.131	1834.911	1287.249	-288.252	1874.342	1217.458	-290.037	1967.921	605.321	-243.662	1685.477	537.021	-487.915	1898.443	629.958	-176.948	1640.265	599.683	-429.395	1918.395	542.924	-176.863	1632.429	514.243	-411.851	1972.718	154.742	-83.435	1620.419	166.207	-316.583	1974.585	162.902	-125.995	1580.499	179.538	-320.058	2127.680	93.095	-157.893	1581.564	42.834	-346.597
	61	0.76667	1750.921	801.843	-281.476	1746.441	781.796	-207.966	1722.169	786.033	-358.085	1890.515	430.829	-203.133	1625.367	422.623	-335.915	2035.536	81.316	-188.090	1490.479	81.832	-302.773	1828.971	851.580	-293.340	1844.157	848.402	-174.820	1813.785	854.758	-411.861	1642.766	922.608	-232.355	1635.137	922.146	-286.380	1903.011	436.735	-146.804	1626.718	418.734	-393.769	1872.041	415.589	-261.178	1650.656	431.670	-272.934	2020.806	76.793	-151.177	1473.051	85.244	-338.614	2045.204	95.267	-219.874	1503.648	89.382	-278.507	1717.982	1355.006	-280.189	1847.620	1292.816	-234.781	1843.144	1286.908	-341.052	1841.845	1286.736	-286.997	1881.552	1217.056	-288.690	1974.774	603.227	-244.412	1690.599	537.310	-487.696	1905.736	628.241	-177.706	1645.950	599.860	-429.066	1925.467	542.324	-176.946	1637.494	513.954	-411.876	1977.845	152.641	-83.839	1622.153	166.135	-317.288	1980.098	160.968	-125.969	1582.078	179.607	-320.538	2133.335	90.345	-158.298	1581.968	43.000	-346.801
	62	0.77500	1759.623	801.469	-280.505	1754.864	781.016	-206.865	1730.043	785.290	-356.893	1896.123	429.131	-202.970	1630.691	422.435	-335.992	2040.122	79.101	-188.640	1491.270	83.438	-303.545	1837.008	850.926	-292.509	1852.638	847.713	-173.965	1821.377	854.140	-411.053	1650.983	921.647	-230.853	1643.249	921.294	-284.855	1909.057	434.946	-146.730	1631.740	418.814	-393.869	1878.156	414.020	-260.530	1656.911	431.160	-273.380	2025.273	74.501	-151.784	1473.868	87.166	-339.368	2049.551	92.812	-220.490	1504.652	90.858	-279.204	1725.042	1354.106	-278.503	1854.497	1292.538	-233.400	1850.152	1286.463	-339.735	1848.820	1286.269	-285.678	1888.735	1216.814	-287.201	1981.850	601.119	-245.003	1696.084	537.633	-487.435	1913.353	626.715	-178.060	1651.405	600.203	-428.353	1932.633	540.927	-177.088	1643.227	514.493	-411.774	1982.304	150.352	-84.357	1623.999	166.100	-317.952	1984.573	158.255	-126.425	1583.668	180.222	-321.386	2138.154	86.993	-158.884	1582.410	43.188	-347.080
	63	0.78333	1768.495	801.080	-279.280	1763.533	780.322	-205.625	1738.154	784.523	-355.562	1901.646	427.479	-202.800	1636.287	422.233	-336.089	2043.979	76.815	-189.244	1492.080	85.252	-304.460	1845.242	850.356	-291.583	1861.321	847.191	-173.028	1829.162	853.520	-410.138	1659.330	920.705	-229.287	1651.492	920.417	-283.261	1914.972	433.144	-146.637	1637.094	418.895	-393.987	1883.474	413.118	-260.771	1663.263	431.181	-272.927	2029.017	72.164	-152.440	1474.770	89.296	-340.293	2052.431	89.617	-221.550	1505.482	92.188	-280.058	1731.789	1353.485	-277.052	1861.549	1292.356	-232.220	1857.008	1285.731	-338.126	1855.837	1285.854	-284.297	1895.838	1216.430	-285.498	1989.121	598.961	-245.413	1701.977	537.958	-487.139	1921.190	625.674	-178.057	1657.248	600.594	-427.456	1939.777	538.884	-177.361	1649.124	514.875	-411.070	1986.237	148.018	-84.952	1625.990	166.103	-318.572	1988.027	155.038	-127.432	1585.796	181.052	-322.616	2142.288	83.149	-159.651	1582.883	43.399	-347.441
	64	0.79167	1777.237	800.480	-277.904	1772.440	779.759	-204.246	1746.515	783.755	-354.095	1907.050	425.936	-202.572	1642.180	422.029	-336.187	2047.326	74.634	-189.846	1492.935	87.261	-305.484	1853.673	849.905	-290.564	1870.195	846.891	-171.996	1837.151	852.919	-409.132	1667.791	919.823	-227.668	1659.855	919.545	-281.608	1920.723	431.403	-146.472	1642.811	418.980	-394.103	1889.208	412.560	-261.441	1670.108	431.270	-272.487	2032.265	69.952	-153.086	1475.775	91.622	-341.352	2054.593	86.495	-222.695	1506.635	93.648	-281.267	1738.245	1353.049	-275.525	1868.571	1291.794	-231.022	1863.801	1285.267	-336.788	1862.895	1285.499	-282.889	1902.810	1215.950	-284.377	1996.559	596.729	-245.615	1708.319	538.248	-486.814	1929.197	624.544	-177.497	1664.132	600.804	-427.065	1947.245	536.927	-177.583	1655.707	514.842	-410.567	1989.819	145.808	-85.562	1628.152	166.145	-319.144	1990.930	151.918	-128.443	1588.159	181.371	-323.425	2145.928	78.951	-160.591	1583.378	43.642	-347.874
	65	0.80000	1785.779	799.688	-276.503	1781.532	779.357	-202.776	1755.107	783.026	-352.547	1912.330	424.581	-202.222	1648.389	421.825	-336.274	2050.379	72.714	-190.391	1493.891	89.445	-306.579	1862.279	849.593	-289.476	1879.205	846.825	-170.890	1845.353	852.361	-408.061	1676.355	919.053	-226.004	1668.340	918.713	-279.911	1926.302	429.820	-146.174	1648.923	419.057	-394.205	1895.324	411.345	-261.497	1675.983	430.820	-272.994	2035.249	68.013	-153.662	1476.923	94.123	-342.498	2056.823	83.828	-223.689	1508.047	95.846	-282.427	1745.096	1352.640	-273.976	1875.626	1291.265	-229.268	1871.059	1285.287	-335.530	1869.995	1285.206	-281.455	1910.079	1215.755	-283.196	2004.128	594.411	-245.588	1715.140	538.473	-486.455	1937.571	622.698	-177.129	1671.135	601.095	-426.772	1954.901	534.990	-177.617	1662.331	515.123	-410.718	1993.236	143.877	-86.114	1630.509	166.222	-319.671	1993.849	149.284	-129.353	1590.690	181.520	-323.641	2149.268	74.561	-161.663	1583.888	43.921	-348.351
	66	0.80833	1794.594	799.155	-274.916	1790.762	779.158	-201.253	1763.917	782.379	-350.959	1917.506	423.495	-201.685	1654.925	421.618	-336.346	2053.294	71.150	-190.845	1495.026	91.795	-307.703	1871.038	849.453	-288.340	1888.306	847.025	-169.723	1853.770	851.881	-406.957	1685.006	918.452	-224.312	1676.952	917.958	-278.188	1931.733	428.496	-145.680	1655.452	419.112	-394.290	1901.718	410.167	-261.215	1681.318	430.271	-273.009	2038.143	66.440	-154.127	1478.276	96.791	-343.681	2059.366	81.569	-224.450	1509.346	97.864	-283.470	1752.403	1352.049	-272.557	1882.749	1291.288	-227.453	1878.531	1285.095	-334.259	1877.135	1285.007	-279.999	1917.620	1215.793	-281.417	2011.780	592.027	-245.316	1722.458	538.618	-486.052	1946.063	620.751	-176.682	1678.264	600.999	-425.941	1962.628	533.482	-177.430	1668.907	515.613	-410.450	1996.662	142.330	-86.539	1633.072	166.331	-320.168	1996.841	147.653	-130.421	1593.176	181.892	-324.202	2152.456	70.158	-162.802	1584.409	44.235	-348.838
	67	0.81667	1804.283	799.439	-272.865	1800.064	779.177	-199.725	1772.912	781.854	-349.386	1922.633	422.735	-200.918	1661.812	421.404	-336.416	2056.117	69.960	-191.202	1496.427	94.319	-308.828	1879.919	849.493	-287.182	1897.441	847.480	-168.522	1862.397	851.506	-405.842	1693.727	918.067	-222.620	1685.691	917.320	-276.467	1937.072	427.512	-144.948	1662.429	419.129	-394.368	1907.940	408.823	-259.988	1690.424	430.567	-271.588	2041.017	65.258	-154.461	1479.903	99.635	-344.866	2062.917	80.380	-224.567	1510.461	99.651	-284.623	1759.266	1351.722	-270.859	1889.823	1291.166	-226.020	1885.892	1284.882	-332.750	1884.310	1284.965	-278.519	1925.010	1215.712	-279.793	2019.452	589.628	-244.792	1730.297	538.690	-485.595	1954.351	619.193	-176.555	1686.318	600.790	-425.222	1969.995	532.196	-176.843	1677.041	515.211	-409.265	2000.221	141.191	-86.789	1635.851	166.466	-320.657	2000.336	147.478	-131.024	1595.889	182.607	-325.226	2155.557	65.914	-163.923	1584.948	44.577	-349.302
	68	0.82500	1813.980	799.708	-270.145	1809.404	779.438	-198.188	1782.058	781.473	-347.824	1927.788	422.336	-199.907	1669.099	421.167	-336.501	2058.782	69.092	-191.476	1498.173	97.034	-309.940	1888.899	849.719	-286.000	1906.584	848.201	-167.291	1871.215	851.238	-404.709	1702.495	917.938	-220.962	1694.540	916.838	-274.782	1942.410	426.914	-143.967	1669.904	419.093	-394.458	1912.796	407.615	-257.874	1699.648	430.471	-270.649	2043.832	64.426	-154.669	1481.872	102.673	-346.030	2067.705	80.064	-224.088	1512.168	102.246	-285.680	1765.952	1352.043	-268.976	1896.911	1290.570	-224.548	1893.057	1285.197	-331.127	1891.509	1285.117	-277.003	1931.989	1215.501	-278.823	2027.073	587.303	-244.025	1738.678	538.704	-485.084	1962.722	617.858	-176.675	1694.759	600.982	-424.593	1976.691	531.003	-175.873	1685.568	514.403	-408.296	2003.964	140.415	-86.841	1638.862	166.635	-321.167	2005.032	147.525	-130.865	1599.596	184.084	-326.361	2158.547	61.954	-164.947	1585.530	44.942	-349.722
	69	0.83333	1823.237	799.618	-266.901	1818.754	779.949	-196.618	1791.314	781.244	-346.245	1933.061	422.307	-198.675	1676.842	420.880	-336.624	2061.167	68.448	-191.701	1500.322	99.961	-311.039	1897.956	850.123	-284.780	1915.722	849.178	-166.026	1880.190	851.069	-403.533	1711.287	918.096	-219.379	1703.465	916.547	-273.182	1947.852	426.714	-142.766	1677.928	418.987	-394.583	1915.161	408.318	-256.972	1705.016	429.394	-270.880	2046.483	63.860	-154.777	1484.229	105.933	-347.169	2071.819	80.167	-223.685	1514.457	105.380	-286.725	1773.063	1352.349	-267.205	1904.219	1290.522	-222.999	1900.052	1285.902	-329.756	1898.714	1285.477	-275.481	1939.117	1215.829	-277.984	2034.573	585.174	-243.046	1747.617	538.683	-484.529	1971.293	617.048	-175.509	1703.792	600.850	-423.869	1982.720	529.480	-174.817	1693.326	514.268	-408.158	2007.881	139.910	-86.706	1642.133	166.864	-321.734	2009.935	147.100	-129.880	1603.567	185.841	-326.931	2161.342	58.353	-165.809	1586.191	45.324	-350.091
